<?xml version="1.0" encoding="UTF-8" standalone="no"?>
<svg
	id="svg2"
	sodipodi:docname="galaxy.svg"
	viewBox="0 0 168 156"
	version="1.1"
	inkscape:version="1.4.2 (ebf0e940, 2025-05-08)"
	width="168"
	height="156"
	xmlns:inkscape="http://www.inkscape.org/namespaces/inkscape"
	xmlns:sodipodi="http://sodipodi.sourceforge.net/DTD/sodipodi-0.dtd"
	xmlns="http://www.w3.org/2000/svg"
	xmlns:svg="http://www.w3.org/2000/svg"
	xmlns:rdf="http://www.w3.org/1999/02/22-rdf-syntax-ns#"
	xmlns:cc="http://creativecommons.org/ns#"
	xmlns:dc="http://purl.org/dc/elements/1.1/"
>
	<defs
		id="defs1"
	/>
	<sodipodi:namedview
		id="namedview8"
		bordercolor="#666666"
		inkscape:pageshadow="2"
		guidetolerance="10"
		pagecolor="#ffffff"
		gridtolerance="10"
		inkscape:window-maximized="1"
		inkscape:zoom="4.3269231"
		objecttolerance="10"
		borderopacity="1"
		inkscape:current-layer="svg2"
		inkscape:cx="83.893333"
		inkscape:cy="78"
		inkscape:window-y="34"
		inkscape:window-x="0"
		inkscape:window-width="1472"
		showgrid="false"
		inkscape:pageopacity="0"
		inkscape:window-height="894"
		inkscape:showpageshadow="0"
		inkscape:pagecheckerboard="0"
		inkscape:deskcolor="#505050"
	/>
	<path
		id="path4"
		inkscape:connector-curvature="0"
		d="M 0,89 C 0,49.6 31.6,12 74,12 c 33.8,0 61,23.2 61,58 0,20.8 -16.2,44 -41,44 -22,0 -34,-14 -34,-31 -3.6,0 -6,6 -6,12 0,16.6 19.8,34 43,34 30.4,0 62,-27.8 62,-69 0,-25.6 -12.4,-47 -23,-60 13,11 32,32.8 32,67 0,39.4 -31.6,77 -74,77 -33.8,0 -61,-23.2 -61,-58 0,-20.8 16.2,-44 41,-44 22,0 34,14 34,31 3.6,0 6,-6 6,-12 C 114,44.4 94.2,27 71,27 40.6,27 9,54.8 9,96 9,121.6 21.4,143 32,156 19,145 0,123.2 0,89 Z"
		style="fill: #008000"
	/>
	<metadata
		id="metadata6"
	>
		<rdf:RDF>
			<cc:Work>
				<dc:format>image/svg+xml</dc:format>
				<dc:type
					rdf:resource="http://purl.org/dc/dcmitype/StillImage"
				/>
				<cc:license
					rdf:resource="http://creativecommons.org/publicdomain/zero/1.0/"
				/>
				<dc:publisher>
					<cc:Agent
						rdf:about="http://openclipart.org/"
					>
						<dc:title>Openclipart</dc:title>
					</cc:Agent>
				</dc:publisher>
			</cc:Work>
			<cc:License
				rdf:about="http://creativecommons.org/publicdomain/zero/1.0/"
			>
				<cc:permits
					rdf:resource="http://creativecommons.org/ns#Reproduction"
				/>
				<cc:permits
					rdf:resource="http://creativecommons.org/ns#Distribution"
				/>
				<cc:permits
					rdf:resource="http://creativecommons.org/ns#DerivativeWorks"
				/>
			</cc:License>
		</rdf:RDF>
	</metadata>
</svg>
